# xmcd CD database file
#
# Track frame offsets:
#	182
#	7262
#	25785
#	42545
#	59450
#	74525
#	88305
#	102570
#	120975
#	133135
#	149750
#	163570
#	176427
#	189317
#
# Disc length: 2725 seconds
#
# Revision: 5
# Processed by: cddbd v1.5.2PL0 Copyright (c) Steve Scherf et al.
# Submitted via: CDex 1.51
#
DISCID=d10aa30e
DTITLE=Various Artist - Noël - Vol.2 - Chants et cantiques de Noël
DYEAR=2000
DGENRE=Chants de Noël
TTITLE0=Jack Lantier - Les anges dans nos campagnes  [1972]
TTITLE1=Ensemble vocal Garnier - Noël blanc  [1977]
TTITLE2=Sidney Bechet - White Christmas  [1958]
TTITLE3=Mezz Mezzrow - Claude Luter - Jingle bells  [1960]
TTITLE4=Les choeurs de l'opéra de Vienne - Oh du frohliche  [1976]
TTITLE5=Le petit choeur du collège de Montreux and C. Jauquier - Noël nouvelet  [1964]
TTITLE6=Sidney Bechet - Douce nuit, Sainte nuit  [1958]
TTITLE7=Les choeurs de l'opéra de Vienne - Still nacht, heilige nacht  [1976]
TTITLE8=Les petits chanteurs de St Laurent - O nuit d'amour  [1963]
TTITLE9=Jack Lantier - Petit papa Noël  [1972]
TTITLE10=Le petit choeur du collège de Montreux and C. Jauquier - Voici Noël  [1964]
TTITLE11=Le petit choeur du collège de Montreux and C. Jauquier - Au Saint Nau  [1960]
TTITLE12=Les petits chanteurs à la croix de bois - Alleluia  [1979]
TTITLE13=Ensemble vocal Garnier - Alleluia, c'est Noël  [1977]
EXTD=YEAR: 2000
EXTT0=
EXTT1=
EXTT2=
EXTT3=
EXTT4=
EXTT5=
EXTT6=
EXTT7=
EXTT8=
EXTT9=
EXTT10=
EXTT11=
EXTT12=
EXTT13=
PLAYORDER=
